<svg width="196" height="72" viewBox="0 0 196 72" fill="none" xmlns="http://www.w3.org/2000/svg">
<path fill-rule="evenodd" clip-rule="evenodd" d="M45.8334 1.28571L16.7068 1.29463V14.8332H24.2893L7.62829 50.7478H0V64.2857H16.3489C19.2885 55.6736 22.9596 49.1523 22.9596 49.1523L19.043 51.5739C21.1396 43.3915 24.8018 36.7505 24.8018 36.7505L22.6113 38.1133C22.6113 38.1133 25.4858 28.3733 33.5963 21.9226C38.7405 17.8303 41.1839 12.744 41.1839 12.744C42.2555 14.2459 40.6507 18.6854 40.9983 18.8378C40.9983 18.8378 44.4689 13.8919 44.5266 13.9239C45.1508 14.9344 44.0489 18.8207 43.8211 19.7768C43.6081 20.6676 44.0821 21.049 44.6649 21.5248C50.0428 25.9078 57.8131 38.1899 60.0383 42.6004L60.0524 42.593C60.1788 42.848 61.1513 45.1209 61.2349 45.3209C61.9944 47.1411 60.8526 48.2229 59.0732 49.405C57.2932 50.5865 55.8407 50.446 55.0191 49.8839C53.7449 49.0102 53.2065 47.7203 52.3035 46.7886C50.4828 45.8161 48.0157 45.9254 46.2586 44.7239C44.8453 43.7573 43.7035 42.3179 43.1673 41.7402L42.9381 41.8316C43.6761 44.4607 48.7604 64.2857 62.603 64.2857H76.8627V50.7478H68.9127L45.8334 1.28571Z" fill="#DD0000"/>
<path fill-rule="evenodd" clip-rule="evenodd" d="M184.456 17.319H181.965V9.74335C181.965 8.62155 181.889 7.9583 181.406 7.39703C180.999 6.91243 180.339 6.65785 179.45 6.65785C178.535 6.65785 177.747 6.9891 177.341 7.49901C176.833 8.1109 176.68 8.92749 176.68 10.1773V17.319H174.189V6.78514H172.741V4.94798H175.689L176.146 6.40178C176.858 5.33134 178.28 4.71871 179.856 4.71871C181.533 4.71871 182.829 5.25467 183.541 6.09583C184.151 6.81045 184.456 7.83026 184.456 9.36147V17.319ZM167.584 11.2232C167.151 11.0699 166.161 10.8912 165.398 10.8912C163.442 10.8912 162.654 11.9118 162.654 13.3142C162.654 14.9214 163.594 15.8399 164.991 15.8399C165.805 15.8399 166.517 15.5593 166.974 15.0747C167.406 14.5894 167.584 13.9522 167.584 13.0596V11.2232ZM171.497 16.9364C171.116 17.217 170.531 17.447 169.743 17.447C168.804 17.447 168.015 17.0384 167.787 16.2225C167.177 17.0384 165.856 17.5483 164.559 17.5483C161.967 17.5483 160.164 16.0945 160.164 13.4169C160.164 10.6106 162.07 9.15677 165.068 9.15677C166.008 9.15677 167.05 9.38678 167.584 9.56469V9.20813C167.584 8.26424 167.457 7.72828 167.05 7.24443C166.618 6.73377 165.856 6.45314 164.737 6.45314C163.619 6.45314 162.501 6.73377 161.333 7.37172V5.56061C162.45 4.99934 163.67 4.71871 165.093 4.71871C166.847 4.71871 168.27 5.178 169.109 6.04521C169.769 6.75983 170.074 7.70297 170.074 9.08084V14.896C170.074 15.4826 170.252 15.7119 170.684 15.7119C170.963 15.7119 171.396 15.5593 171.598 15.4059L171.497 16.9364ZM156.404 8.90218C156.048 7.37172 155.388 6.5045 154.041 6.5045C151.958 6.5045 151.093 8.4429 151.093 10.9679C151.093 14.1814 152.262 15.7372 154.651 15.7372C155.947 15.7372 157.294 15.2273 158.259 14.564L158.158 16.4771C157.217 17.115 155.718 17.5483 154.245 17.5483C150.61 17.5483 148.577 15.2786 148.577 11.1465C148.577 7.11639 150.661 4.71871 154.016 4.71871C156.404 4.71871 158.183 5.91792 158.717 8.39228L156.404 8.90218ZM144.157 2.98426C143.344 2.98426 142.683 2.32101 142.683 1.4791C142.683 0.637943 143.344 0 144.157 0C144.97 0 145.656 0.637943 145.656 1.4791C145.656 2.32101 144.97 2.98426 144.157 2.98426V2.98426ZM146.978 16.9364C146.596 17.217 145.987 17.447 145.199 17.447C144.437 17.447 143.878 17.217 143.522 16.8091C143.192 16.4265 143.064 15.8399 143.064 14.9466V6.78513H141.616V4.94797H145.554V14.896C145.554 15.4826 145.732 15.7119 146.165 15.7119C146.444 15.7119 146.876 15.5593 147.079 15.4059L146.978 16.9364ZM140.067 6.88712C139.888 6.83576 139.432 6.81045 139.202 6.81045C138.339 6.81045 137.653 7.11639 137.195 7.70297C136.688 8.34091 136.509 9.18208 136.509 10.458V17.319H134.019V6.78514H132.571V4.94798H135.62L136.077 6.65785C136.713 5.40727 137.983 4.71871 139.381 4.71871C139.661 4.71871 139.915 4.74476 140.067 4.79538V6.88712ZM125.686 6.47919C124.11 6.47919 122.992 7.60099 122.789 10.3046H128.278C128.43 10.3046 128.507 10.2026 128.507 10.05C128.507 7.88162 127.566 6.47919 125.686 6.47919V6.47919ZM130.539 11.6311C130.311 11.8604 129.904 11.9631 129.345 11.9631H122.789C122.967 14.5134 124.415 15.7372 126.474 15.7372C127.846 15.7372 129.421 15.2273 130.387 14.5387L130.285 16.4518C129.268 17.1664 127.566 17.5483 126.067 17.5483C122.23 17.5483 120.248 14.998 120.248 11.1971C120.248 7.19306 122.356 4.71871 125.737 4.71871C128.938 4.71871 130.895 7.01441 130.895 10.4833C130.895 10.9679 130.794 11.3765 130.539 11.6311V11.6311ZM117.913 17.319H115.422V9.74335C115.422 8.62155 115.346 7.9583 114.863 7.39703C114.456 6.93774 113.846 6.65785 112.982 6.65785C112.068 6.65785 111.382 6.9891 110.949 7.49901C110.441 8.1109 110.289 8.92749 110.289 10.1773V15.2273V17.319H107.798V9.74335C107.798 8.62155 107.723 7.9583 107.239 7.39703C106.833 6.93774 106.223 6.65785 105.359 6.65785C104.444 6.65785 103.758 6.9891 103.326 7.49901C102.818 8.1109 102.665 8.92749 102.665 10.1773V17.319H100.175V6.78514H98.7267V4.94798H101.674L102.132 6.40178C102.843 5.33134 104.19 4.71871 105.765 4.71871C107.417 4.71871 108.917 5.25467 109.679 6.55512C110.493 5.25467 111.966 4.71871 113.415 4.71871C115.066 4.71871 116.286 5.25467 116.997 6.09583C117.608 6.81045 117.913 7.83026 117.913 9.36147V17.319ZM93.875 11.9631L91.5878 5.30529C91.4358 4.87206 91.3082 4.25942 91.257 3.80013H91.2326C91.2066 4.25942 91.0798 4.92342 90.953 5.30529L88.843 11.9631H93.875ZM98.3981 17.3191H95.7045L94.4845 13.7735H88.2586L87.1409 17.3191H84.549L89.2249 3.06101H87.7765V1.17398H92.6045L98.3981 17.3191ZM190.065 64.0145L187.574 64.016L187.572 56.4404C187.571 55.3178 187.496 54.6553 187.012 54.094C186.606 53.6094 185.945 53.3549 185.056 53.3549C184.141 53.3549 183.353 53.6869 182.946 54.1968C182.439 54.8094 182.286 55.6253 182.286 56.8758L182.289 64.0175H179.798L179.795 53.4836L178.347 53.4844L178.346 51.6472L181.294 51.6465L181.752 53.101C182.463 52.0291 183.885 51.4165 185.461 51.4157C187.138 51.4157 188.435 51.9509 189.147 52.7928C189.757 53.5067 190.062 54.5265 190.062 56.057L190.065 64.0145ZM173.952 53.4093C173.546 53.2567 172.91 53.1287 172.351 53.1294C169.76 53.1302 168.184 54.8646 168.185 58.1042C168.186 60.7565 169.177 62.2869 171.184 62.2862C172.049 62.2862 172.76 61.9795 173.243 61.4688C173.75 60.9083 173.954 60.1937 173.954 59.1486L173.952 53.4093ZM176.446 63.7637C176.446 65.9061 176.167 66.9267 175.329 67.8966C174.414 68.9417 172.788 69.4271 170.882 69.4286C169.332 69.4286 167.832 69.0459 166.765 68.4854L166.866 66.5217C167.806 67.0822 169.281 67.6174 170.754 67.6167C171.796 67.6167 172.711 67.3361 173.244 66.7748C173.778 66.1882 173.955 65.3716 173.955 63.8672V62.8213C173.294 63.5613 172.278 64.0712 170.779 64.0719C167.551 64.0727 165.67 62.007 165.669 58.2835C165.668 55.9878 166.431 54.2527 167.65 53.0795C168.819 51.9562 170.47 51.4202 172.401 51.4202C173.748 51.4195 175.299 51.7254 176.443 52.1587L176.446 63.7637ZM161.348 49.6888C160.535 49.6888 159.874 49.0263 159.874 48.1844C159.873 47.3425 160.535 46.7046 161.347 46.7046C162.16 46.7046 162.847 47.3417 162.847 48.1837C162.848 49.0256 162.162 49.6888 161.348 49.6888V49.6888ZM164.173 63.6402C163.792 63.9208 163.182 64.1501 162.394 64.1508C161.632 64.1508 161.072 63.9216 160.717 63.5129C160.386 63.131 160.259 62.5444 160.259 61.6519L160.256 53.4897L158.808 53.4904L158.807 51.654L162.747 51.6525L162.749 61.5998C162.749 62.1864 162.927 62.4164 163.359 62.4157C163.639 62.4157 164.071 62.2631 164.274 62.1097L164.173 63.6402ZM153.551 57.93C153.118 57.7766 152.127 57.5987 151.365 57.5987C149.408 57.5994 148.621 58.6193 148.621 60.0232C148.622 61.6296 149.562 62.5474 150.959 62.5467C151.772 62.5467 152.485 62.266 152.942 61.7814C153.373 61.2961 153.551 60.6589 153.551 59.7664L153.551 57.93ZM157.465 63.6425C157.085 63.9231 156.5 64.1524 155.713 64.1524C154.772 64.1524 153.984 63.7452 153.755 62.9286C153.146 63.7452 151.824 64.2558 150.529 64.2566C147.937 64.2566 146.132 62.8043 146.131 60.1252C146.13 57.3204 148.036 55.8651 151.034 55.8643C151.974 55.8636 153.017 56.0936 153.551 56.2715V55.915C153.55 54.9703 153.422 54.4351 153.016 53.9513C152.584 53.4406 151.821 53.1607 150.704 53.1607C149.585 53.1607 148.467 53.4421 147.298 54.08L147.297 52.2697C148.416 51.7077 149.635 51.4263 151.058 51.4263C152.811 51.4255 154.235 51.8848 155.074 52.7513C155.735 53.4659 156.04 54.4091 156.04 55.7862L156.042 61.6021C156.042 62.1887 156.22 62.4179 156.652 62.4179C156.931 62.4179 157.363 62.2646 157.567 62.1113L157.465 63.6425ZM138.787 53.2917C137.847 53.2924 137.135 53.6497 136.678 54.2363C136.221 54.8229 136.043 55.6395 136.043 56.7874L136.045 62.2966C136.655 62.4752 137.366 62.5765 138.053 62.5765C140.797 62.5757 141.762 60.8152 141.762 57.729C141.761 54.5408 140.668 53.2917 138.787 53.2917V53.2917ZM138.232 64.2595C137.469 64.2603 136.656 64.1836 136.045 64.0563L136.047 69.1063L133.556 69.1077L133.552 53.4979H132.104V51.6615L135.127 51.6607L135.611 53.1651C136.398 52.0426 137.643 51.43 139.193 51.43C142.928 51.4285 144.276 54.2847 144.277 57.6769C144.278 61.5544 142.577 64.2588 138.232 64.2595V64.2595ZM130.355 64.0325L127.865 64.0332L127.864 56.4575C127.864 55.3358 127.786 54.6725 127.303 54.1112C126.897 53.6527 126.287 53.372 125.424 53.3728C124.508 53.3728 123.822 53.704 123.39 54.2147C122.883 54.8266 122.73 55.6432 122.731 56.893L122.732 61.943V64.0347L120.242 64.0354L120.24 56.4598C120.24 55.3372 120.163 54.6747 119.68 54.1135C119.273 53.6549 118.664 53.3743 117.8 53.3743C116.885 53.375 116.199 53.7063 115.767 54.2169C115.259 54.8288 115.106 55.6454 115.107 56.8953L115.108 64.0369L112.619 64.0377L112.616 53.5038L111.167 53.5046L111.167 51.6674L114.115 51.6666L114.572 53.1204C115.283 52.0493 116.63 51.4366 118.205 51.4359C119.857 51.4359 121.357 51.9711 122.12 53.2716C122.933 51.9696 124.406 51.4337 125.855 51.4337C127.506 51.4329 128.726 51.9681 129.438 52.81C130.048 53.5239 130.353 54.5437 130.353 56.0742L130.355 64.0325ZM106.393 57.9434C105.961 57.7908 104.97 57.6122 104.207 57.6129C102.25 57.6129 101.463 58.6335 101.463 60.0366C101.464 61.643 102.404 62.5616 103.802 62.5609C104.615 62.5609 105.326 62.2795 105.784 61.7949C106.216 61.3103 106.394 60.6724 106.393 59.7798V57.9434ZM110.308 63.6559C109.927 63.9365 109.342 64.1658 108.555 64.1665C107.614 64.1665 106.827 63.7586 106.598 62.9427C105.988 63.7593 104.667 64.27 103.371 64.27C100.779 64.2707 98.9736 62.8177 98.9729 60.1394C98.9722 57.3338 100.877 55.8792 103.877 55.8785C104.817 55.8785 105.859 56.107 106.392 56.2857V55.9284C106.392 54.9845 106.265 54.4493 105.857 53.9647C105.426 53.4547 104.663 53.1749 103.546 53.1749C102.427 53.1749 101.309 53.4555 100.14 54.0942L100.139 52.2831C101.257 51.7211 102.477 51.4404 103.9 51.4397C105.654 51.4397 107.077 51.8982 107.915 52.7647C108.577 53.4793 108.882 54.4232 108.882 55.8003L108.884 61.6162C108.884 62.2028 109.062 62.4314 109.494 62.4314C109.774 62.4314 110.206 62.2788 110.409 62.1254L110.308 63.6559ZM94.5002 52.3612C94.1434 50.8054 93.4574 49.6576 91.7547 49.6583C89.087 49.6591 87.9946 52.3121 87.9961 55.7296C87.9968 59.6324 89.1412 62.208 92.546 62.2072C93.9944 62.2065 95.7224 61.6958 96.866 60.9053L96.7391 63.0477C95.6727 63.7109 93.9187 64.2722 92.038 64.2737C87.0579 64.2744 85.2269 60.7304 85.2261 55.8836C85.2246 50.757 87.5608 47.67 91.8555 47.6686C94.8287 47.6678 96.685 49.2735 97.1426 51.8498L94.5002 52.3612ZM190.789 30.3504C189.214 30.3504 188.096 31.4737 187.893 34.1773L193.383 34.1758C193.535 34.1758 193.612 34.0731 193.612 33.9205C193.61 31.7521 192.67 30.3497 190.789 30.3504V30.3504ZM195.645 35.5008C195.416 35.7308 195.009 35.8328 194.451 35.8328L187.894 35.8343C188.073 38.3853 189.522 39.6091 191.58 39.6091C192.953 39.6083 194.528 39.0977 195.493 38.4084L195.392 40.3215C194.376 41.0361 192.674 41.4194 191.174 41.4194C187.337 41.4209 185.354 38.8714 185.353 35.0705C185.352 31.0657 187.46 28.5914 190.84 28.5899C194.042 28.5891 195.999 30.8841 196 34.353C196 34.8375 195.899 35.2462 195.645 35.5008V35.5008ZM179.181 41.4231C177.631 41.4231 176.207 41.0926 175.115 40.608L175.292 38.6183C176.36 39.2555 177.757 39.6381 179.079 39.6381C180.502 39.6374 181.595 39.1014 181.594 38.0049C181.594 36.8317 180.755 36.4997 178.443 35.736C176.511 35.0981 175.139 34.3083 175.139 32.2418C175.138 29.9722 177.094 28.5943 179.863 28.5936C181.083 28.5928 182.201 28.7968 183.04 29.1027L183.041 31.0411C182.202 30.6585 180.906 30.3786 179.94 30.3786C178.416 30.3794 177.476 31.0426 177.476 31.9865C177.476 32.981 178.314 33.3383 180.272 34.0008C182.585 34.7653 183.88 35.5559 183.881 37.7235C183.882 39.8659 182.179 41.4224 179.181 41.4231V41.4231ZM173.742 30.7634C173.563 30.7121 173.106 30.6868 172.877 30.6868C172.014 30.6868 171.328 30.9935 170.87 31.58C170.362 32.218 170.184 33.0599 170.185 34.335L170.186 41.1968H167.697L167.693 30.6629H166.244V28.8265L169.293 28.8258L169.751 30.5349C170.386 29.2843 171.657 28.5958 173.055 28.5958C173.334 28.595 173.588 28.6211 173.741 28.6717L173.742 30.7634ZM159.512 30.3846C157.454 30.3854 156.413 31.8652 156.413 35.0274C156.415 38.191 157.457 39.6441 159.515 39.6434C161.574 39.6426 162.615 38.1888 162.614 35.0259C162.613 31.8637 161.571 30.3839 159.512 30.3846V30.3846ZM159.515 41.429C155.958 41.4298 153.899 39.1601 153.898 35.0287C153.897 30.8966 155.954 28.6002 159.512 28.5994C163.069 28.5987 165.129 30.8937 165.13 35.025C165.131 39.1571 163.073 41.4283 159.515 41.429V41.429ZM151.436 41.202L148.794 41.2027L148.792 34.163L142.134 34.1645L142.136 41.2042L139.493 41.2049L139.488 25.0599L142.131 25.0591L142.133 32.0474L148.791 32.046L148.789 25.0576L151.432 25.0561L151.436 41.202ZM127.296 30.5215C126.888 30.4195 126.279 30.3182 125.669 30.3182C123.077 30.319 121.527 32.0281 121.529 35.4203C121.529 37.8693 122.47 39.6291 124.503 39.6283C125.443 39.6276 126.205 39.2703 126.637 38.7604C127.12 38.1738 127.298 37.4592 127.297 36.2347L127.296 30.5215ZM131.212 40.8247C130.831 41.1053 130.221 41.3353 129.433 41.3361C128.671 41.3361 128.111 41.1068 127.756 40.6989C127.629 40.5455 127.527 40.3669 127.451 40.1376C126.688 41.0048 125.545 41.4388 124.224 41.4396C120.921 41.4403 119.014 39.2473 119.013 35.4978C119.012 33.3041 119.647 31.4677 120.917 30.2432C122.009 29.1713 123.636 28.61 125.491 28.6092C126.101 28.6092 126.762 28.6852 127.295 28.8132L127.294 25.5989L125.846 25.5997L125.845 23.7625L129.784 23.7618L129.788 38.7851C129.788 39.3716 129.967 39.6009 130.399 39.6009C130.678 39.6009 131.11 39.4476 131.314 39.295L131.212 40.8247ZM117.618 40.8291C117.237 41.1098 116.626 41.3398 115.839 41.3398C115.076 41.3398 114.517 41.1105 114.161 40.7026C113.83 40.32 113.704 39.7334 113.704 38.8401L113.7 25.6026L112.251 25.6034V23.7669L116.189 23.7655L116.194 38.7887C116.194 39.3761 116.372 39.6053 116.804 39.6053C117.084 39.6046 117.516 39.452 117.719 39.2987L117.618 40.8291ZM108.39 26.88C107.577 26.88 106.916 26.2167 106.916 25.3756C106.915 24.5337 107.576 23.8957 108.389 23.8957C109.203 23.8957 109.889 24.5329 109.889 25.3741C109.889 26.216 109.203 26.8792 108.39 26.88V26.88ZM111.215 40.8307C110.834 41.1121 110.224 41.3413 109.437 41.3413C108.674 41.3413 108.115 41.1128 107.759 40.7049C107.428 40.3223 107.301 39.7349 107.301 38.8424L107.298 30.6809H105.85L105.849 28.8445L109.788 28.843L109.791 38.791C109.792 39.3776 109.969 39.6069 110.401 39.6069C110.681 39.6069 111.113 39.4535 111.316 39.3002L111.215 40.8307ZM104.758 25.0696L100.113 41.2169H97.5719L94.7485 31.449L91.8028 41.2192L89.3635 41.2199L84.5563 25.0756L87.1735 25.0748L90.4804 36.3985C90.6584 37.0111 90.76 37.5977 90.76 38.0562H90.7852C90.8112 37.5977 90.9128 36.9344 91.0648 36.4751L93.705 27.8529L92.8915 25.0733L95.3818 25.0726L98.6116 36.3196C98.7904 36.9069 98.9172 37.5441 98.9172 38.054H98.9424C98.9684 37.5694 99.0952 36.8555 99.2472 36.3196L102.294 25.0703L104.758 25.0696Z" fill="#0033A0"/>
<path fill-rule="evenodd" clip-rule="evenodd" d="M73.0195 68.5021H71.9731V72H71.5038V68.5021H70.4574V68.1428H73.0195V68.5021Z" fill="#DA291C"/>
<path fill-rule="evenodd" clip-rule="evenodd" d="M78.1438 72H77.6715V69.0018C77.6388 69.1481 77.5417 69.4159 77.464 69.5988L76.4161 72H76.0478L74.9478 69.538C74.8825 69.3976 74.7986 69.1722 74.7668 69.0018V72H74.3007V68.1428H74.7986L76.1053 71.0371C76.1636 71.171 76.235 71.3722 76.2483 71.4695H76.2545C76.2669 71.3722 76.3384 71.1593 76.3904 71.043L77.652 68.1428H78.1438V72Z" fill="#DA291C"/>
</svg>
